<svg width="800" height="200" viewBox="0 0 800 200" fill="none" xmlns="http://www.w3.org/2000/svg">
  <rect width="800" height="200" rx="12" fill="url(#paint0_linear)"/>
  <defs>
    <linearGradient id="paint0_linear" x1="0" y1="0" x2="800" y2="200" gradientUnits="userSpaceOnUse">
      <stop stop-color="#000000"/>
      <stop offset="1" stop-color="#1A1A1A"/>
    </linearGradient>
  </defs>

  <!-- Background Pattern -->
  <path d="M0 40H800M0 80H800M0 120H800M0 160H800M40 0V200M80 0V200M120 0V200M160 0V200" stroke="white" stroke-opacity="0.03" stroke-width="1"/>

  <!-- Logo Group -->
  <g transform="translate(600, 50) scale(1.2)">
    <circle cx="45" cy="50" r="42" fill="#111111" stroke="white" stroke-opacity="0.1" stroke-width="1"/>
    <path d="M 3 48 C 15 35, 22 45, 25 55 C 30 75, 42 70, 48 45 C 54 20, 68 20, 72 45 C 76 65, 82 45, 90 25" fill="none" stroke="#ffffff" stroke-width="6" stroke-linecap="round" stroke-linejoin="round" />
    <circle cx="90" cy="25" r="9" fill="#C0FF00" />
  </g>

  <!-- Title & Slogan -->
  <text x="50" y="90" fill="white" font-family="Arial, sans-serif" font-size="48" font-weight="bold">ops4life</text>
  <text x="50" y="125" fill="#94A3B8" font-family="Arial, sans-serif" font-size="22" font-style="italic">Ops at Scale. Shared for Life.</text>

  <!-- Accent Detail -->
  <rect x="50" y="150" width="80" height="4" rx="2" fill="#C0FF00"/>
</svg>
